<svg width="51" height="50" viewBox="0 0 51 50" fill="none" xmlns="http://www.w3.org/2000/svg">
<g clip-path="url(#clip0_586_536)">
<path d="M48.2604 14.2855C48.0868 13.9201 47.6496 13.7646 47.2846 13.9383C46.9191 14.1118 46.7637 14.5487 46.9372 14.9141C48.4399 18.0773 49.2019 21.4709 49.2019 25.0005C49.2019 31.287 46.7538 37.1971 42.3086 41.6424C37.8635 46.0876 31.9532 48.5356 25.6667 48.5356C21.9385 48.5356 18.373 47.6895 15.0697 46.0209C12.3173 44.6304 9.83065 42.6784 7.8115 40.3327L10.7013 41.296C11.0849 41.4239 11.4998 41.2165 11.6277 40.8327C11.7556 40.4489 11.5482 40.0342 11.1644 39.9062L5.96424 38.1728C5.72342 38.0926 5.45818 38.1426 5.26336 38.3053C5.06853 38.468 4.97176 38.72 5.0076 38.9713L5.8743 45.0382C5.92654 45.4035 6.23982 45.6671 6.59852 45.6671C6.63299 45.6671 6.66785 45.6646 6.70301 45.6596C7.1035 45.6024 7.38172 45.2314 7.32449 44.831L6.8409 41.446C8.95994 43.8659 11.5486 45.8833 14.4094 47.3284C17.9193 49.1014 21.7068 50.0005 25.6667 50.0005C32.3444 50.0005 38.6226 47.4 43.3444 42.6782C48.0662 37.9562 50.6667 31.6782 50.6667 25.0005C50.6667 21.2517 49.8571 17.6468 48.2604 14.2855Z" fill="#272343"/>
<path d="M46.3259 11.0293L45.4592 4.9624C45.402 4.56191 45.0301 4.28389 44.6306 4.34092C44.2301 4.39814 43.9519 4.76914 44.0091 5.16953L44.4922 8.55117C39.7359 3.10156 32.9459 0 25.6667 0C18.989 0 12.711 2.60049 7.98901 7.32227C3.26724 12.0442 0.666748 18.3223 0.666748 25C0.666748 28.7488 1.47642 32.3539 3.0731 35.7149C3.19849 35.9789 3.46118 36.1333 3.7352 36.1333C3.84048 36.1333 3.94751 36.1105 4.04897 36.0622C4.41431 35.8887 4.56978 35.4518 4.39624 35.0863C2.89351 31.9233 2.13159 28.5298 2.13159 25C2.13159 18.7135 4.57964 12.8033 9.02485 8.35811C13.4701 3.91289 19.3802 1.46484 25.6667 1.46484C32.5863 1.46484 39.0362 4.44277 43.5199 9.66709L40.6323 8.70459C40.2483 8.57646 39.8336 8.78408 39.7058 9.16787C39.578 9.55166 39.7852 9.96641 40.169 10.0943L45.3692 11.8277C45.445 11.8529 45.5231 11.8653 45.6007 11.8653C45.7699 11.8653 45.9365 11.8067 46.0702 11.6952C46.265 11.5325 46.3618 11.2806 46.3259 11.0293Z" fill="#272343"/>
<path d="M23.6314 32.8784H16.2638C16.5581 30.3149 18.3796 28.595 20.2986 26.7831C22.2972 24.896 24.3638 22.9446 24.3638 20.0144C24.3638 17.6113 22.2091 15.6562 19.5607 15.6562C16.9123 15.6562 14.7576 17.6113 14.7576 20.0144C14.7576 20.4188 15.0855 20.7468 15.49 20.7468C15.8945 20.7468 16.2224 20.4188 16.2224 20.0144C16.2224 18.419 17.7199 17.1211 19.5607 17.1211C21.4015 17.1211 22.899 18.419 22.899 20.0144C22.899 22.3132 21.1473 23.9671 19.2929 25.7181C17.167 27.7253 14.7576 30.0004 14.7576 33.6108C14.7576 34.0153 15.0855 34.3433 15.49 34.3433H23.6314C24.0359 34.3433 24.3638 34.0153 24.3638 33.6108C24.3638 33.2063 24.0359 32.8784 23.6314 32.8784Z" fill="#272343"/>
<path d="M35.8435 28.1813H35.0103V16.3887C35.0103 15.9842 34.6825 15.6562 34.2779 15.6562C33.8733 15.6562 33.5455 15.9842 33.5455 16.3887V28.1814H27.3322L29.5179 16.5237C29.5925 16.1262 29.3306 15.7434 28.9331 15.6688C28.5359 15.5947 28.1529 15.8562 28.0783 16.2537L25.7298 28.7789C25.6897 28.9931 25.7469 29.214 25.8861 29.3816C26.0252 29.5493 26.2318 29.6463 26.4497 29.6463H33.5455V33.6108C33.5455 34.0152 33.8733 34.3432 34.2779 34.3432C34.6825 34.3432 35.0103 34.0152 35.0103 33.6107V29.6462H35.8435C36.2481 29.6462 36.5759 29.3183 36.5759 28.9138C36.5759 28.5093 36.2481 28.1813 35.8435 28.1813Z" fill="#272343"/>
<path d="M25.6667 3.91406C25.2623 3.91406 24.9343 4.24199 24.9343 4.64648V7.77773C24.9343 8.18223 25.2623 8.51016 25.6667 8.51016C26.0713 8.51016 26.3992 8.18223 26.3992 7.77773V4.64648C26.3992 4.24199 26.0713 3.91406 25.6667 3.91406Z" fill="#272343"/>
<path d="M25.6667 41.4902C25.2623 41.4902 24.9343 41.8182 24.9343 42.2227V45.3539C24.9343 45.7584 25.2623 46.0863 25.6667 46.0863C26.0713 46.0863 26.3992 45.7584 26.3992 45.3539V42.2227C26.3992 41.8182 26.0713 41.4902 25.6667 41.4902Z" fill="#272343"/>
<path d="M46.02 24.2676H42.8888C42.4842 24.2676 42.1564 24.5955 42.1564 25C42.1564 25.4045 42.4842 25.7324 42.8888 25.7324H46.02C46.4246 25.7324 46.7525 25.4045 46.7525 25C46.7525 24.5955 46.4246 24.2676 46.02 24.2676Z" fill="#272343"/>
<path d="M8.44448 24.2676H5.31323C4.90874 24.2676 4.58081 24.5955 4.58081 25C4.58081 25.4045 4.90874 25.7324 5.31323 25.7324H8.44448C8.84897 25.7324 9.1769 25.4045 9.1769 25C9.1769 24.5955 8.84897 24.2676 8.44448 24.2676Z" fill="#272343"/>
</g>
<defs>
<clipPath id="clip0_586_536">
<rect width="50" height="50" fill="white" transform="translate(0.666748)"/>
</clipPath>
</defs>
</svg>
