<svg width="65" height="39" viewBox="0 0 65 39" fill="none" xmlns="http://www.w3.org/2000/svg">
<path d="M14.2968 30.5869C13.2273 30.5869 12.3573 31.4569 12.3573 32.5264C12.3573 33.5959 13.2273 34.4659 14.2968 34.4659C15.3663 34.4659 16.2363 33.5959 16.2363 32.5264C16.2363 31.4569 15.3663 30.5869 14.2968 30.5869Z" fill="#272343"/>
<path d="M54.378 30.5869C53.3085 30.5869 52.4385 31.4569 52.4385 32.5264C52.4385 33.5959 53.3085 34.4659 54.378 34.4659C55.4475 34.4659 56.3175 33.5959 56.3175 32.5264C56.3175 31.4569 55.4475 30.5869 54.378 30.5869Z" fill="#272343"/>
<path d="M62.322 18.154L55.104 15.748L51.7304 6.47074C51.3092 5.31262 50.1984 4.53449 48.966 4.53449H40.285V2.46587C40.285 1.39637 39.415 0.526367 38.3455 0.526367H2.27287C1.20337 0.526367 0.333374 1.39649 0.333374 2.46599V29.5205C0.333374 30.59 1.20337 31.46 2.27287 31.46H8.44712C8.38412 31.8062 8.3495 32.1624 8.3495 32.5265C8.3495 35.806 11.0176 38.4741 14.2971 38.4741C17.5766 38.4741 20.2447 35.806 20.2447 32.5265C20.2447 32.1622 20.2101 31.8062 20.1471 31.46H48.528C48.465 31.8062 48.4304 32.1624 48.4304 32.5265C48.4304 35.806 51.0985 38.4741 54.378 38.4741C57.6575 38.4741 60.3256 35.806 60.3256 32.5265C60.3256 32.0632 60.2706 31.6127 60.17 31.1797L62.1539 30.1879C63.4981 29.5155 64.3334 28.1639 64.3334 26.6605V20.9446C64.3334 19.6766 63.5251 18.5551 62.322 18.154ZM2.20837 2.46599C2.20837 2.43037 2.23725 2.40137 2.27287 2.40137H38.3455C38.3811 2.40137 38.41 2.43024 38.41 2.46587V22.5707H2.20837V2.46599ZM14.297 36.5991C12.0514 36.5991 10.2244 34.7721 10.2244 32.5265C10.2244 30.2809 12.0514 28.4539 14.297 28.4539C16.5426 28.4539 18.3696 30.2809 18.3696 32.5265C18.3697 34.7721 16.5427 36.5991 14.297 36.5991ZM38.41 29.5849H19.4631C18.4377 27.7912 16.5069 26.5789 14.297 26.5789C12.0871 26.5789 10.1564 27.7912 9.131 29.5849H2.27287C2.23725 29.5849 2.20837 29.556 2.20837 29.5204V24.4457H38.41V29.5849ZM51.1706 10.4176L53.0394 15.5567H51.0264L49.1576 10.4176H51.1706ZM40.285 6.40949H48.966C49.4129 6.40949 49.8156 6.69162 49.9684 7.11149L50.4888 8.54249H40.285V6.40949ZM40.285 10.4176H47.1625L49.0312 15.5567H40.285V10.4176ZM54.3778 36.5991C52.1321 36.5991 50.3051 34.7721 50.3051 32.5265C50.3051 30.2809 52.1321 28.4539 54.3778 28.4539C56.6234 28.4539 58.4504 30.2809 58.4504 32.5265C58.4504 34.7721 56.6234 36.5991 54.3778 36.5991ZM62.4584 22.5706H61.3919C60.8741 22.5706 60.4544 22.9904 60.4544 23.5081C60.4544 24.0259 60.8741 24.4456 61.3919 24.4456H62.4584V26.6604C62.4584 27.4491 62.0202 28.158 61.315 28.5107L59.4591 29.4386C58.4141 27.7252 56.5274 26.5789 54.3778 26.5789C52.1679 26.5789 50.2371 27.7912 49.2118 29.5849H40.285V24.4457H57.3839C57.9016 24.4457 58.3214 24.026 58.3214 23.5082C58.3214 22.9905 57.9016 22.5707 57.3839 22.5707H40.285V17.4316H54.2256L61.7291 19.9327C62.1654 20.0781 62.4584 20.4847 62.4584 20.9445V22.5706Z" fill="#272343"/>
<path d="M31.7966 11.6717L24.7825 7.6637C24.3331 7.40683 23.7604 7.56308 23.5034 8.01258C23.2465 8.4622 23.4026 9.03483 23.8522 9.2917L27.8012 11.5483H9.28711C8.76936 11.5483 8.34961 11.9681 8.34961 12.4858C8.34961 13.0036 8.76936 13.4232 9.28711 13.4232H27.8012L23.8522 15.6798C23.4027 15.9367 23.2465 16.5093 23.5034 16.959C23.6764 17.2617 23.9927 17.4315 24.3182 17.4315C24.476 17.4315 24.6359 17.3916 24.7825 17.3077L31.7966 13.2997C32.0886 13.1328 32.269 12.8222 32.269 12.4857C32.269 12.1492 32.0887 11.8387 31.7966 11.6717Z" fill="#272343"/>
</svg>
