<svg width="44" height="46" viewBox="0 0 44 46" fill="none" xmlns="http://www.w3.org/2000/svg">
<path d="M43.1788 10.1498L22.293 0.0669785C22.1079 -0.0223262 21.8922 -0.0223262 21.7072 0.0669785L0.821277 10.1498C0.588402 10.2622 0.44043 10.498 0.44043 10.7566V35.2434C0.44043 35.502 0.588402 35.7378 0.821277 35.8502L21.7071 45.933C21.7996 45.9777 21.8999 46 22.0001 46C22.1002 46 22.2004 45.9777 22.293 45.933L43.1788 35.8502C43.4117 35.7378 43.5597 35.502 43.5597 35.2434V10.7567C43.5597 10.4979 43.4116 10.2623 43.1788 10.1498ZM22.0001 1.42209L41.336 10.7566L35.7309 13.4625C35.6954 13.4355 35.6579 13.4105 35.6168 13.3906L16.4122 4.11965L22.0001 1.42209ZM14.8905 4.88153L34.1982 14.2025L30.2438 16.1115L10.944 6.79439L14.8905 4.88153ZM34.65 15.4808V22.5376L30.9562 24.3208V17.264L34.65 15.4808ZM42.212 34.8206L22.6739 44.2526V21.2623L27.3343 19.0124C27.6695 18.8506 27.81 18.4478 27.6482 18.1126C27.4864 17.7776 27.0836 17.6369 26.7484 17.7988L22.0001 20.0912L20.1317 19.1891C19.7965 19.0272 19.3937 19.1679 19.2319 19.503C19.0701 19.8381 19.2106 20.2409 19.5457 20.4028L21.3262 21.2623V44.2526L1.78809 34.8204V11.8301L16.6662 19.0127C16.7606 19.0583 16.8605 19.0799 16.9587 19.0799C17.2091 19.0799 17.4497 18.9396 17.5659 18.6989C17.7277 18.3637 17.5872 17.9609 17.2521 17.7991L2.66415 10.7566L9.35796 7.52509L29.5992 17.2968C29.6022 17.3009 29.6055 17.3046 29.6086 17.3086V25.3945C29.6086 25.6264 29.7278 25.8419 29.9242 25.9652C30.0333 26.0337 30.1577 26.0683 30.2825 26.0683C30.3824 26.0683 30.4826 26.0461 30.5754 26.0013L35.6168 23.5675C35.8497 23.4551 35.9976 23.2194 35.9976 22.9607V14.8303L42.212 11.8302V34.8206Z" fill="#272343"/>
</svg>
